<?xml version="1.0" standalone="no"?>
<!DOCTYPE svg PUBLIC "-//W3C//DTD SVG 20010904//EN"
 "http://www.w3.org/TR/2001/REC-SVG-20010904/DTD/svg10.dtd">
<svg version="1.0" xmlns="http://www.w3.org/2000/svg"
 width="410.000000pt" height="410.000000pt" viewBox="0 0 410.000000 410.000000"
 preserveAspectRatio="xMidYMid meet">
<metadata>
Created by potrace 1.11, written by Peter Selinger 2001-2013
</metadata>
<g transform="translate(0.000000,410.000000) scale(0.100000,-0.100000)"
fill="#000000" stroke="none">
<path d="M2015 4049 c-608 -50 -1165 -433 -1449 -997 -106 -211 -198 -526
-210 -717 -2 -39 -2 -56 1 -40 70 485 276 889 609 1194 399 364 947 520 1462
415 295 -60 603 -222 826 -435 343 -327 545 -742 597 -1224 14 -135 6 -404
-16 -530 -102 -575 -411 -1042 -888 -1337 -196 -122 -363 -175 -682 -218 -62
-8 -57 -8 40 -4 296 14 509 83 750 241 244 161 433 347 580 572 473 723 442
1677 -77 2368 -262 350 -660 604 -1067 683 -84 17 -333 43 -365 39 -6 -1 -56
-5 -111 -10z"/>
<path d="M1220 2965 l0 -235 -320 -2 -321 -3 0 -210 0 -210 321 -3 320 -2 2
-838 3 -837 250 0 250 0 3 838 2 837 340 0 340 0 0 215 0 215 -340 0 -340 0 0
235 0 235 -255 0 -255 0 0 -235z m480 -25 l0 -230 343 -2 342 -3 3 -187 2
-188 -342 -2 -343 -3 -3 -837 -2 -838 -225 0 -225 0 -2 838 -3 837 -323 3
-322 2 2 188 3 187 323 3 322 2 0 230 0 230 225 0 225 0 0 -230z"/>
<path d="M1375 2787 c-5 -8 -27 -36 -48 -61 l-39 -45 62 -71 c35 -38 68 -70
74 -70 23 1 65 45 57 59 -7 10 -13 11 -31 1 -20 -11 -27 -8 -68 33 l-45 45 32
41 c29 37 37 41 77 41 50 0 55 -4 134 -108 47 -63 56 -70 69 -58 12 13 9 22
-27 68 -96 124 -101 128 -172 134 -51 5 -67 3 -75 -9z"/>
<path d="M705 2585 l-37 -45 22 -35 c21 -34 24 -35 82 -35 51 0 59 2 56 18 -2
12 -15 18 -45 20 -58 4 -73 25 -43 57 29 31 81 33 117 5 21 -16 29 -18 41 -8
12 11 10 16 -19 40 -27 23 -43 28 -85 28 -49 0 -53 -2 -89 -45z"/>
<path d="M2159 2613 c-15 -2 -38 -17 -53 -32 -22 -23 -24 -30 -13 -40 11 -9
20 -7 38 7 37 29 94 34 121 12 21 -16 21 -20 9 -44 -12 -21 -22 -26 -53 -26
-31 0 -38 -3 -38 -20 0 -17 7 -20 44 -20 40 0 47 4 82 46 l38 47 -45 38 c-44
38 -61 43 -130 32z"/>
<path d="M947 2534 c-4 -4 -7 -13 -7 -21 0 -10 35 -13 171 -13 157 0 170 1
167 18 -3 15 -20 17 -164 20 -88 1 -163 -1 -167 -4z"/>
<path d="M1670 2520 c0 -19 7 -20 175 -20 168 0 175 1 175 20 0 19 -7 20 -175
20 -168 0 -175 -1 -175 -20z"/>
<path d="M1582 2347 c-47 -135 -48 -143 -28 -150 10 -4 26 28 60 125 25 71 44
134 40 139 -15 25 -33 -2 -72 -114z"/>
<path d="M1319 2363 c-2 -12 -1 -15 58 -208 48 -156 54 -187 49 -232 -6 -47
-4 -53 13 -53 19 0 31 34 31 88 0 21 -36 144 -106 365 -9 27 -22 47 -30 47 -8
0 -15 -3 -15 -7z"/>
<path d="M1546 2091 c-3 -5 14 -58 39 -117 l45 -107 -65 -184 c-36 -102 -65
-186 -65 -189 0 -2 8 -4 19 -4 15 0 30 35 84 189 l66 189 -47 113 c-44 106
-62 132 -76 110z"/>
<path d="M1387 1752 c-2 -4 -19 -82 -38 -173 l-33 -166 64 -202 c73 -227 74
-231 90 -215 13 13 14 10 -63 250 l-54 170 33 155 c18 85 34 159 34 165 0 14
-27 27 -33 16z"/>
<path d="M1503 1308 c4 -29 9 -113 13 -186 5 -100 11 -135 21 -139 8 -3 16 -3
19 -1 2 3 -1 89 -8 192 -11 174 -13 186 -31 186 -18 0 -19 -5 -14 -52z"/>
<path d="M1443 848 c-5 -35 -8 -66 -6 -70 3 -5 42 -8 87 -8 l84 0 -17 68 c-15
57 -21 68 -41 70 -19 3 -22 0 -16 -15 4 -10 10 -33 13 -50 5 -32 5 -33 -31
-33 l-37 0 3 47 c2 38 0 48 -14 51 -13 2 -18 -9 -25 -60z"/>
<path d="M342 2230 c0 -14 2 -19 5 -12 2 6 2 18 0 25 -3 6 -5 1 -5 -13z"/>
<path d="M1865 2151 c-3 -6 -1 -20 5 -31 12 -23 4 -107 -12 -127 -7 -9 -3 -14
16 -19 37 -9 45 1 40 49 l-5 42 25 -45 24 -45 18 38 c10 20 21 37 26 37 11 0
10 -28 -2 -50 -9 -16 -6 -21 14 -26 54 -13 59 -7 59 91 l0 90 -29 0 c-23 0
-33 -7 -49 -37 -11 -21 -22 -38 -25 -38 -3 0 -14 17 -25 38 -14 26 -28 38 -47
40 -14 2 -29 -2 -33 -7z"/>
<path d="M2473 2150 c-42 -17 -22 -41 25 -32 14 3 22 10 20 20 -4 20 -17 23
-45 12z"/>
<path d="M2853 2149 c-25 -9 -30 -24 -10 -32 16 -6 57 10 57 22 0 14 -23 19
-47 10z"/>
<path d="M3313 2119 c-32 -20 -43 -39 -23 -39 6 0 10 -18 10 -39 0 -60 34 -85
81 -61 25 14 24 26 -1 33 -15 4 -20 14 -20 36 0 24 4 31 20 31 11 0 20 7 20
15 0 8 -9 15 -20 15 -11 0 -20 7 -20 15 0 20 -9 19 -47 -6z"/>
<path d="M2130 2082 c-16 -17 -30 -38 -30 -47 0 -24 46 -65 74 -65 30 0 86 45
86 70 0 28 -32 59 -67 66 -27 5 -37 1 -63 -24z m65 -43 c9 -37 -12 -47 -25
-13 -12 30 -5 63 10 48 5 -5 12 -21 15 -35z"/>
<path d="M2280 2100 c-12 -8 -12 -11 2 -27 8 -10 25 -37 37 -60 12 -24 26 -43
31 -43 5 0 19 19 31 43 12 23 30 52 41 64 20 21 20 21 -2 28 -25 8 -36 -1 -42
-30 -4 -23 -24 -18 -21 5 3 27 -45 40 -77 20z"/>
<path d="M2483 2098 c-33 -9 -42 -21 -23 -33 14 -9 12 -49 -2 -63 -22 -22 26
-41 64 -27 11 4 13 20 10 63 -2 31 -7 60 -11 63 -3 3 -21 2 -38 -3z"/>
<path d="M2590 2099 c-23 -8 -25 -14 -24 -66 0 -52 3 -58 23 -61 31 -5 44 11
45 50 1 49 21 44 21 -5 0 -40 1 -42 30 -42 29 0 30 2 33 48 2 26 7 47 12 47 5
0 10 -21 12 -47 2 -39 7 -48 23 -51 33 -4 41 10 37 66 -4 59 -26 81 -62 62
-14 -8 -26 -8 -41 0 -16 9 -26 8 -43 -3 -18 -12 -24 -13 -32 -2 -6 9 -16 10
-34 4z"/>
<path d="M2863 2098 c-37 -10 -38 -11 -21 -37 9 -15 9 -26 -1 -47 -10 -22 -10
-29 1 -35 32 -21 91 -1 70 23 -6 7 -12 34 -14 59 l-3 45 -32 -8z"/>
<path d="M2966 2089 c-33 -26 -35 -70 -4 -99 26 -24 56 -26 86 -4 29 20 21 32
-18 26 -23 -3 -30 0 -30 12 0 12 9 16 35 16 28 0 35 4 35 19 0 22 -35 51 -61
51 -9 0 -28 -9 -43 -21z m54 -19 c0 -5 -7 -10 -15 -10 -8 0 -15 5 -15 10 0 6
7 10 15 10 8 0 15 -4 15 -10z"/>
<path d="M3120 2099 c-33 -13 -35 -16 -20 -34 9 -11 9 -22 1 -47 -13 -37 -2
-50 39 -46 23 3 25 7 22 44 -2 24 1 45 8 49 18 11 25 -3 25 -48 0 -40 1 -42
30 -42 22 0 30 5 29 18 0 9 -1 35 -2 57 -2 48 -29 68 -64 49 -16 -9 -23 -9
-26 0 -4 13 -9 13 -42 0z"/>
<path d="M3462 2100 c-51 -21 -54 -102 -5 -121 82 -31 152 59 87 110 -29 23
-46 25 -82 11z m48 -67 c0 -37 -24 -22 -28 17 -3 30 -2 32 12 21 9 -8 16 -25
16 -38z"/>
<path d="M1891 1822 c-52 -51 -39 -121 26 -148 41 -17 97 -5 113 25 12 24 2
33 -22 20 -45 -24 -98 23 -83 72 9 26 49 24 67 -3 17 -25 48 -19 48 10 0 28
-20 41 -73 48 -42 6 -49 4 -76 -24z"/>
<path d="M2086 1834 c-4 -9 -4 -19 -1 -22 8 -8 55 16 55 28 0 17 -47 11 -54
-6z"/>
<path d="M2705 1843 c-30 -7 -41 -21 -27 -35 15 -15 16 -100 0 -116 -15 -15
-9 -20 28 -27 39 -7 63 8 45 29 -8 9 -11 38 -9 82 3 69 -1 75 -37 67z"/>
<path d="M3361 1841 c-25 -7 -42 -31 -22 -31 6 0 11 -5 11 -10 0 -6 -11 -8
-24 -4 -19 4 -32 -1 -50 -20 -28 -27 -32 -46 -16 -76 16 -29 46 -43 69 -30 12
6 22 6 25 1 9 -15 62 4 56 20 -2 8 -6 47 -8 87 -2 39 -7 72 -10 71 -4 -1 -18
-4 -31 -8z m-13 -100 c5 -29 -13 -50 -29 -34 -15 15 -3 66 14 60 7 -2 14 -14
15 -26z"/>
<path d="M421 1794 c-1 -15 -122 -38 -151 -29 -18 6 -21 4 -17 -12 3 -10 9
-37 12 -60 6 -37 10 -42 28 -39 12 3 53 10 90 17 l68 12 -7 41 c-7 44 -22 89
-23 70z"/>
<path d="M2090 1791 c-17 -5 -24 -13 -22 -27 5 -39 5 -59 -2 -75 -5 -12 -1
-18 16 -22 42 -11 87 10 58 28 -5 3 -10 28 -10 56 0 27 -3 49 -7 48 -5 -1 -19
-4 -33 -8z"/>
<path d="M2196 1791 c-16 -6 -20 -18 -20 -64 -1 -63 9 -74 58 -61 27 6 33 18
16 29 -5 3 -10 17 -10 31 0 21 4 23 23 19 32 -8 52 15 34 40 -11 14 -17 16
-35 6 -14 -8 -22 -8 -22 -1 0 11 -16 12 -44 1z"/>
<path d="M2345 1775 c-29 -28 -31 -51 -10 -82 20 -29 62 -38 91 -18 33 21 30
33 -8 37 -25 2 -34 8 -36 26 -4 26 15 29 33 5 14 -19 35 -9 35 17 0 43 -68 53
-105 15z"/>
<path d="M2490 1788 c-15 -6 -20 -12 -12 -15 7 -3 12 -22 12 -43 0 -22 7 -45
16 -54 18 -19 20 -19 45 -5 15 7 24 7 33 -1 9 -7 22 -7 37 -1 23 8 24 13 19
67 l-5 59 -33 -2 c-41 -1 -49 -8 -33 -27 15 -18 11 -58 -6 -63 -8 -3 -13 12
-15 44 -3 52 -14 60 -58 41z"/>
<path d="M2805 1775 c-33 -32 -32 -68 1 -94 33 -26 50 -26 92 -1 24 15 32 27
32 47 0 34 -8 46 -37 62 -34 17 -62 13 -88 -14z m59 -21 c9 -23 7 -54 -3 -54
-11 0 -21 25 -21 51 0 23 15 25 24 3z"/>
<path d="M2976 1785 c-23 -23 -20 -40 11 -70 15 -14 22 -25 16 -25 -7 0 -15 5
-18 10 -11 18 -33 11 -28 -9 6 -23 64 -37 93 -21 28 15 25 45 -7 69 -14 12
-23 24 -20 28 4 3 13 0 22 -7 20 -16 33 -4 19 18 -15 23 -67 27 -88 7z"/>
<path d="M3466 1779 c-35 -28 -35 -70 0 -98 31 -24 40 -25 73 -8 29 15 25 31
-8 31 -41 1 -38 26 3 26 29 0 36 4 36 19 0 22 -35 51 -61 51 -9 0 -28 -9 -43
-21z m54 -19 c0 -5 -7 -10 -15 -10 -8 0 -15 5 -15 10 0 6 7 10 15 10 8 0 15
-4 15 -10z"/>
<path d="M440 1637 c0 -12 -7 -32 -15 -44 -17 -25 -8 -35 24 -26 14 4 20 11
17 20 -3 8 -6 28 -6 44 0 16 -4 29 -10 29 -5 0 -10 -10 -10 -23z"/>
<path d="M350 1624 c-17 -30 -9 -38 29 -29 37 8 38 14 7 37 -22 16 -24 16 -36
-8z"/>
<path d="M281 1610 c-1 -47 10 -70 35 -70 33 0 37 14 11 37 -12 11 -27 29 -34
39 -11 18 -12 17 -12 -6z"/>
<path d="M412 1436 c-56 -117 -59 -133 -39 -158 22 -28 52 -4 96 78 l42 77
-17 51 c-9 28 -19 54 -23 57 -3 4 -30 -44 -59 -105z"/>
<path d="M1914 1529 c-3 -6 -2 -14 4 -18 9 -5 17 -73 13 -108 -2 -20 -18 -15
-24 8 -8 29 -51 22 -55 -9 -3 -18 4 -26 32 -37 31 -13 40 -13 70 -1 35 14 46
41 46 112 0 18 5 36 10 39 6 4 8 11 5 16 -9 13 -92 11 -101 -2z"/>
<path d="M2035 1531 c-3 -5 -1 -12 5 -16 5 -3 10 -29 10 -56 0 -65 12 -86 55
-98 44 -12 101 2 115 29 5 10 10 41 10 69 0 27 5 53 10 56 17 11 0 25 -30 25
-30 0 -47 -14 -30 -25 5 -3 10 -28 10 -55 0 -40 -4 -51 -22 -61 -18 -10 -24
-8 -40 12 -11 12 -17 32 -15 43 3 12 8 36 12 54 l7 32 -46 0 c-24 0 -47 -4
-51 -9z"/>
<path d="M2277 1533 c-7 -11 75 -177 88 -178 6 0 26 32 46 70 20 39 44 77 53
86 25 24 19 30 -21 27 -33 -3 -38 -6 -35 -25 2 -12 -2 -32 -8 -44 -15 -27 -31
-12 -35 33 -2 31 -5 33 -43 36 -22 2 -42 -1 -45 -5z"/>
<path d="M2500 1526 c0 -8 5 -18 10 -21 6 -3 10 -30 10 -60 0 -30 -4 -57 -10
-60 -27 -16 -3 -25 70 -25 70 0 81 2 91 21 17 33 -4 46 -31 19 -28 -28 -54
-22 -58 13 -4 29 12 37 22 11 9 -23 26 -7 26 26 0 35 -15 47 -29 23 -7 -14
-12 -15 -22 -6 -6 6 -9 19 -6 27 7 19 48 21 65 4 16 -16 35 3 26 25 -9 23
-164 25 -164 3z"/>
<path d="M2696 1531 c-3 -5 1 -14 9 -21 17 -14 21 -115 5 -125 -21 -13 -9 -25
24 -25 35 0 55 13 36 25 -11 7 -14 55 -4 55 3 0 27 -18 52 -40 25 -22 50 -39
56 -37 6 2 12 35 14 73 2 37 8 71 14 75 18 11 -2 29 -32 29 -30 0 -47 -14 -30
-25 11 -7 14 -45 4 -45 -4 0 -24 16 -45 35 -38 34 -90 47 -103 26z"/>
<path d="M2942 1528 c-14 -14 -16 -44 -3 -52 5 -3 14 1 21 9 22 26 30 16 30
-34 0 -31 -5 -53 -15 -61 -24 -20 -8 -30 46 -30 37 0 49 4 49 15 0 8 -4 15
-10 15 -5 0 -10 25 -10 55 0 59 4 64 30 40 23 -21 41 0 29 33 -8 20 -15 22
-82 22 -43 0 -78 -5 -85 -12z"/>
<path d="M3134 1529 c-3 -6 -1 -16 5 -22 6 -6 11 -35 11 -64 0 -45 4 -55 25
-69 34 -22 100 -22 125 1 11 10 22 37 25 64 4 25 9 58 11 74 5 25 3 27 -30 27
-35 0 -47 -12 -26 -25 6 -3 10 -28 10 -55 0 -39 -4 -52 -20 -60 -37 -20 -60 3
-60 60 0 28 5 50 12 52 6 2 8 10 4 16 -9 15 -82 16 -92 1z"/>
<path d="M3370 1531 c0 -6 5 -13 11 -17 15 -9 6 -127 -9 -132 -32 -10 7 -22
74 -22 60 0 78 4 94 20 38 38 38 102 0 140 -16 16 -34 20 -95 20 -41 0 -75 -4
-75 -9z m118 -33 c20 -20 15 -96 -7 -107 -26 -15 -31 -5 -31 61 0 59 11 73 38
46z"/>
<path d="M376 1494 c-29 -10 -42 -11 -53 -3 -20 17 -24 7 -11 -34 11 -37 28
-50 28 -22 0 9 20 24 45 35 25 11 45 24 45 30 0 13 -6 12 -54 -6z"/>
<path d="M520 1358 c0 -9 -16 -26 -36 -37 -42 -25 -39 -38 5 -23 24 8 34 8 45
-3 20 -20 26 -8 14 28 -13 39 -28 57 -28 35z"/>
<path d="M520 1110 c-23 -23 -27 -84 -8 -125 13 -28 30 -34 26 -8 -4 20 99 86
125 79 27 -7 20 9 -18 43 -43 37 -94 42 -125 11z"/>
<path d="M691 1005 c-1 -23 -6 -46 -13 -53 -9 -9 -9 -15 -1 -23 8 -8 18 -6 37
6 28 18 32 30 16 40 -6 4 -17 21 -24 38 l-14 32 -1 -40z"/>
<path d="M540 943 c0 -15 58 -63 77 -63 21 0 10 24 -13 28 -10 2 -29 13 -41
25 -13 11 -23 16 -23 10z"/>
<path d="M767 829 c-28 -49 -30 -50 -48 -33 -11 9 -21 15 -24 12 -3 -3 4 -13
15 -23 25 -23 25 -34 0 -43 -19 -7 -17 -11 21 -57 44 -53 58 -64 56 -43 -1 7
16 47 37 89 l39 76 -28 37 c-15 20 -30 36 -34 36 -3 0 -19 -23 -34 -51z"/>
<path d="M705 854 c-27 -8 -63 -12 -78 -9 l-28 5 21 -30 c25 -35 46 -51 37
-27 -7 19 12 31 65 41 20 4 39 13 42 21 6 18 6 18 -59 -1z"/>
<path d="M903 735 c9 -21 -71 -126 -90 -120 -25 9 -12 -12 31 -48 l45 -37 55
66 c31 36 56 68 56 72 0 7 -63 61 -89 77 -11 6 -13 4 -8 -10z"/>
<path d="M1014 630 c1 -29 -65 -111 -86 -106 -34 8 -18 -15 25 -34 54 -25 68
-25 101 1 36 28 36 85 0 128 -30 36 -41 39 -40 11z"/>
<path d="M1127 549 c13 -13 -53 -126 -77 -132 -9 -2 4 -15 34 -35 28 -18 53
-32 56 -32 6 0 83 127 88 145 1 6 -18 22 -43 38 -47 28 -79 37 -58 16z"/>
<path d="M1250 484 c0 -3 9 -17 20 -31 11 -14 20 -32 20 -39 0 -21 18 -17 31
7 12 23 10 26 -43 55 -16 8 -28 12 -28 8z"/>
<path d="M1340 433 c0 -3 6 -14 14 -22 8 -9 30 -56 50 -106 48 -118 94 -158
116 -100 14 36 -46 175 -83 193 -54 26 -97 42 -97 35z"/>
<path d="M1229 422 c-25 -3 -26 -5 -16 -33 14 -36 18 -36 40 0 19 33 15 38
-24 33z"/>
<path d="M1336 335 c-11 -28 -27 -50 -40 -55 -19 -7 -18 -9 16 -24 48 -20 51
-20 36 3 -10 16 -9 27 5 56 11 23 14 42 9 51 -7 12 -13 4 -26 -31z"/>
<path d="M1528 348 c7 -7 9 -29 6 -57 l-5 -46 19 34 c11 19 28 38 38 42 16 6
13 9 -18 23 -44 19 -56 20 -40 4z"/>
<path d="M1160 343 c0 -10 79 -58 84 -52 2 2 9 14 15 27 11 22 10 23 -21 21
-18 -1 -43 1 -55 5 -13 4 -23 3 -23 -1z"/>
<path d="M1690 298 c0 -13 4 -40 9 -60 8 -36 8 -37 -23 -41 l-31 -3 32 -8 c29
-8 55 -36 33 -36 -6 0 -10 -4 -10 -9 0 -4 26 -13 57 -20 82 -16 84 -16 68 17
-7 15 -18 57 -25 94 -11 63 -14 67 -44 73 -17 4 -39 9 -48 11 -14 4 -18 0 -18
-18z"/>
<path d="M1631 230 c-18 -27 -45 -53 -60 -58 -25 -9 -24 -10 19 -19 48 -10 64
-8 40 7 -12 7 -8 17 18 54 31 43 40 66 25 66 -5 0 -23 -22 -42 -50z"/>
</g>
</svg>
